<?xml version="1.0" encoding="utf-8"?><svg xmlns="http://www.w3.org/2000/svg" xmlns:xlink="http://www.w3.org/1999/xlink"><symbol viewBox="0 0 24 24" id="close" xmlns="http://www.w3.org/2000/svg"><g clip-path="url(#aclip0)"><path d="M23.954 21.03l-9.184-9.095 9.092-9.174L21.03-.046l-9.09 9.18L2.764.044l-2.81 2.81L9.14 11.96.045 21.144l2.81 2.81 9.112-9.192 9.18 9.1 2.807-2.832z"/></g><defs><clipPath id="aclip0"><path d="M0 0h24v24H0z"/></clipPath></defs></symbol><symbol viewBox="0 0 25 21" id="comment" xmlns="http://www.w3.org/2000/svg"><g clip-path="url(#bclip0)"><path fill-rule="evenodd" clip-rule="evenodd" d="M20.831 12.646c0 .465-.455.843-1.017.843-.561 0-1.017-.378-1.017-.843 0-.465.456-.843 1.017-.843.562 0 1.017.378 1.017.843zm-3.05 0c0 .465-.456.843-1.018.843-.561 0-1.017-.378-1.017-.843 0-.465.456-.843 1.017-.843.562 0 1.017.378 1.017.843zm-3.051 0c0 .465-.456.843-1.018.843-.56 0-1.016-.378-1.016-.843 0-.465.455-.843 1.017-.843.56 0 1.017.378 1.017.843zm5.506 4.17c-1.017.216-2.023.406-3.38.406-3.524 0-7.211-1.74-7.211-4.572 0-2.637 3.193-4.782 7.118-4.782 3.91 0 7.119 2.143 7.119 4.782 0 1.342-.657 2.13-1.506 2.974l.853 2.264-2.993-1.072zm-13.6-2.845l-4.463 1.598 1.277-3.382C2.31 11.056 1.51 9.94 1.51 8.225c0-3.606 4.333-6.54 9.66-6.54 5.103 0 9.283 2.694 9.628 6.09a11.069 11.069 0 00-4.035-.75c-4.27 0-8.135 2.358-8.135 5.625 0 .6.15 1.18.418 1.728-.97-.107-1.572-.23-2.41-.408zM24.9 12.65c0-1.832-1.22-3.386-3.053-4.393l.002-.033c0-4.288-5.072-7.382-10.678-7.382C5.53.843.492 3.96.492 8.225c0 1.512.657 2.998 1.822 4.15L.54 17.072l6.181-2.213c.999.213 1.965.343 2.898.412 1.34 1.647 3.942 2.794 7.237 2.794 1.036 0 2.14-.113 3.297-.36l4.71 1.686-1.351-3.58c.886-.878 1.387-2.01 1.387-3.16z"/></g><defs><clipPath id="bclip0"><path transform="translate(.492)" d="M0 0h24.407v20.234H0z"/></clipPath></defs></symbol><symbol viewBox="0 0 18 10" id="downArrow" xmlns="http://www.w3.org/2000/svg"><path d="M.354.646l9 9m8.292-9l-9 9"/></symbol><symbol viewBox="0 0 30 30" id="email" xmlns="http://www.w3.org/2000/svg"><path d="M0 3.75v22.5h30V3.75H0zm8.279 9.911L2.5 20.801V8.98l5.779 4.682zM3.103 6.25h23.793L15 15.891 3.102 6.25zm7.117 8.985L15 19.109l4.788-3.88 7.014 8.521H3.33l6.891-8.515zm11.51-1.58l5.77-4.676v11.685l-5.77-7.009z"/></symbol><symbol viewBox="0 0 25 21" id="eye" xmlns="http://www.w3.org/2000/svg"><g clip-path="url(#eclip0)"><path d="M12.219 5.902c4.831 0 8.2 2.54 9.665 3.909-1.425 1.548-4.793 4.522-9.665 4.522-4.495 0-8.065-2.981-9.639-4.559 1.518-1.388 4.899-3.872 9.639-3.872zm0-1.686C4.52 4.216 0 9.739 0 9.739s4.917 6.28 12.219 6.28c7.864 0 12.188-6.28 12.188-6.28s-4.364-5.523-12.188-5.523zm-.016 4.215c1.122 0 2.034.757 2.034 1.687s-.912 1.686-2.034 1.686c-1.121 0-2.034-.757-2.034-1.687s.913-1.686 2.034-1.686zm0-1.686c-2.246 0-4.067 1.51-4.067 3.372 0 1.863 1.821 3.373 4.067 3.373 2.247 0 4.068-1.51 4.068-3.373 0-1.861-1.821-3.372-4.068-3.372z"/></g><defs><clipPath id="eclip0"><path d="M0 0h24.407v20.234H0z"/></clipPath></defs></symbol><symbol viewBox="0 0 30 30" id="fb" xmlns="http://www.w3.org/2000/svg"><path d="M11.25 10H7.5v5h3.75v15h6.25V15h4.552l.448-5h-5V7.916c0-1.194.24-1.666 1.394-1.666H22.5V0h-4.76c-4.495 0-6.49 1.979-6.49 5.769V10z"/></symbol><symbol viewBox="0 0 25 24" id="heart" xmlns="http://www.w3.org/2000/svg"><g clip-path="url(#gclip0)"><path d="M12.898 9.229c.234-1.12 1.547-6.23 5.382-6.23 2.22 0 4.618 1.552 4.618 5.004 0 3.907-3.627 8.47-10 12.629-6.373-4.16-10-8.722-10-12.63 0-3.483 2.37-5.004 4.577-5.004 3.923 0 5.145 5.126 5.423 6.23zm-12-1.226c0 4.068 3.06 9.48 12 14.997 8.94-5.516 12-10.93 12-14.997 0-7.962-9.648-9.028-12-3.737-2.338-5.262-12-4.27-12 3.737z"/></g><defs><clipPath id="gclip0"><path transform="translate(.898)" d="M0 0h24v24H0z"/></clipPath></defs></symbol><symbol viewBox="0 0 30 30" id="instagram" xmlns="http://www.w3.org/2000/svg"><g clip-path="url(#hclip0)"><path d="M15 2.704c4.005 0 4.48.015 6.063.087 4.065.185 5.963 2.114 6.148 6.149.073 1.581.087 2.056.087 6.061 0 4.007-.015 4.48-.087 6.062-.186 4.03-2.08 5.963-6.148 6.148-1.583.073-2.055.088-6.063.088-4.005 0-4.48-.015-6.061-.088-4.075-.186-5.964-2.123-6.149-6.15-.073-1.581-.087-2.055-.087-6.061 0-4.005.016-4.479.087-6.061.186-4.034 2.08-5.964 6.149-6.149 1.582-.071 2.056-.086 6.061-.086zM15 0c-4.074 0-4.584.018-6.184.09C3.37.34.341 3.362.091 8.815.018 10.416 0 10.926 0 15s.018 4.585.09 6.185c.25 5.448 3.272 8.475 8.725 8.725 1.601.073 2.111.09 6.185.09s4.585-.017 6.185-.09c5.443-.25 8.478-3.273 8.724-8.725.074-1.6.091-2.111.091-6.185s-.017-4.584-.09-6.184C29.665 3.374 26.639.341 21.186.091 19.585.018 19.074 0 15 0zm0 7.298a7.703 7.703 0 100 15.405 7.703 7.703 0 000-15.405zM15 20a5 5 0 110-10 5 5 0 010 10zm8.008-14.806a1.8 1.8 0 10-.002 3.601 1.8 1.8 0 00.002-3.601z"/></g><defs><clipPath id="hclip0"><path d="M0 0h30v30H0z"/></clipPath></defs></symbol><symbol viewBox="0 0 30 30" id="iphone" xmlns="http://www.w3.org/2000/svg"><path d="M23.75 2.5a2.5 2.5 0 00-2.5-2.5H8.75a2.5 2.5 0 00-2.5 2.5v25a2.5 2.5 0 002.5 2.5h12.5a2.5 2.5 0 002.5-2.5v-25zm-10.625 0h3.75a.625.625 0 010 1.25h-3.75a.625.625 0 010-1.25zM15 27.5a1.25 1.25 0 110-2.5 1.25 1.25 0 010 2.5zm6.25-3.75H8.75V6.22h12.5v17.53z"/></symbol><symbol viewBox="0 0 25 21" id="like" xmlns="http://www.w3.org/2000/svg"><g clip-path="url(#jclip0)"><path d="M16.234 7.431C17.055 4.663 17.507 0 14 0c-1.893 0-2.39 1.406-2.882 2.807-2.004 5.723-5.404 6.19-8.542 6.528v8.37c3.563 0 5.679.615 8.308 1.553 1.278.456 3.104.976 5.426.976 2.581 0 4.368-.84 5.094-3.107.508-1.583 1.511-6.113 1.511-6.956 0-1.39-1.188-2.062-2.638-2.114-1.23-.043-2.919-.233-4.043-.626zm3.78 3.643l-1.417.14s-.62.936.144.94c0 0 .204.01 1.087-.022 1.1-.039 1.069 1.239.004 1.318l-1.791.083c-.747.08-.667 1.014.143.988 0 0 .698-.014 1.163-.034 1.086-.047 1.033 1.205.04 1.307-.43.045-1.774.097-1.774.097-.825.061-.718 1.042.11.962l.785-.026c.836-.062 1.02.696-.297 1.4-1.594.743-4.765.111-6.525-.517-2.276-.814-4.512-1.63-7.076-1.691V10.96c3.318-.631 6.436-1.9 8.462-7.683.913-2.607 1.708-1.628 1.708.484 0 1.746-.499 3.192-.937 4.665 1.079.458 3.428 1.182 6.224 1.312 1.073.05 1.042 1.226-.052 1.336z"/></g><defs><clipPath id="jclip0"><path transform="translate(.543)" d="M0 0h24.407v20.234H0z"/></clipPath></defs></symbol><symbol viewBox="0 0 83 16" id="longArrow" xmlns="http://www.w3.org/2000/svg"><path d="M82.707 8.707a1 1 0 000-1.414L76.343.929a1 1 0 10-1.414 1.414L80.586 8l-5.657 5.657a1 1 0 001.414 1.414l6.364-6.364zM0 9h82V7H0v2z"/></symbol><symbol viewBox="0 0 12 38" id="menu" xmlns="http://www.w3.org/2000/svg"><path fill-rule="evenodd" clip-rule="evenodd" d="M6 26.334c3.036 0 5.5 2.464 5.5 5.5s-2.464 5.5-5.5 5.5a5.502 5.502 0 01-5.5-5.5c0-3.036 2.464-5.5 5.5-5.5zm0 1.833a3.668 3.668 0 013.667 3.667A3.668 3.668 0 016 35.5a3.668 3.668 0 01-3.667-3.666A3.668 3.668 0 016 28.167zM6 13.5c3.036 0 5.5 2.464 5.5 5.5S9.036 24.5 6 24.5A5.502 5.502 0 01.5 19c0-3.036 2.464-5.5 5.5-5.5zm0 1.834A3.668 3.668 0 019.667 19 3.668 3.668 0 016 22.667 3.668 3.668 0 012.333 19 3.668 3.668 0 016 15.334zM6 .667c3.036 0 5.5 2.464 5.5 5.5s-2.464 5.5-5.5 5.5a5.502 5.502 0 01-5.5-5.5c0-3.036 2.464-5.5 5.5-5.5zM6 2.5a3.668 3.668 0 013.667 3.667A3.668 3.668 0 016 9.834a3.668 3.668 0 01-3.667-3.667A3.668 3.668 0 016 2.5z"/></symbol><symbol viewBox="0 0 24 24" id="moon" xmlns="http://www.w3.org/2000/svg"><path d="M10.719 2.082C8.147 4.11 6 7.294 6 12c0 4.569 1.938 7.798 4.548 9.895C5.719 21.19 2 17.021 2 12c0-5.08 3.808-9.288 8.719-9.918zM12 0C5.383 0 0 5.383 0 12s5.383 12 12 12c1.894 0 3.87-.333 5.37-1.179C13.917 22.208 8 19.454 8 12c0-7.555 6.422-10.317 9.37-10.821C15.63.497 13.894 0 12 0zm0 10.999A4.51 4.51 0 0114.999 14 4.52 4.52 0 0118 11a4.521 4.521 0 01-3.001-3A4.509 4.509 0 0112 10.999zm8.001.001a3.011 3.011 0 012 2.001A3.006 3.006 0 0124 11a3.012 3.012 0 01-2-2 3.01 3.01 0 01-1.999 2zm-1-9a4.514 4.514 0 01-2.998 3.001 4.52 4.52 0 013.001 3.002A4.515 4.515 0 0122 5.001 4.522 4.522 0 0119.001 2z"/></symbol><symbol viewBox="0 0 20 19" id="search" xmlns="http://www.w3.org/2000/svg"><path d="M7.62 14.48C3.42 14.48 0 11.232 0 7.24 0 3.247 3.42 0 7.62 0c4.202 0 7.622 3.248 7.622 7.24 0 3.991-3.419 7.24-7.621 7.24zm0-12.008c-2.767 0-5.018 2.14-5.018 4.768 0 2.628 2.252 4.767 5.019 4.767 2.766 0 5.019-2.139 5.019-4.767 0-2.629-2.252-4.768-5.02-4.768zm7.72 9.851a9.264 9.264 0 01-2.538 2.36L17.345 19l2.512-2.385-4.517-4.292z"/></symbol><symbol viewBox="0 0 21 20" id="share" xmlns="http://www.w3.org/2000/svg"><g clip-path="url(#oclip0)"><g clip-path="url(#oclip1)"><path d="M4.249 7.5c1.378 0 2.5 1.122 2.5 2.5s-1.122 2.5-2.5 2.5a2.503 2.503 0 01-2.5-2.5c0-1.378 1.121-2.5 2.5-2.5zm0-1.667a4.167 4.167 0 100 8.334 4.167 4.167 0 000-8.334zm12.5 7.5a3.31 3.31 0 00-2.446 1.085l-4.573-2.44a5.787 5.787 0 01-.787 1.47l4.573 2.44c-.06.25-.1.509-.1.779a3.333 3.333 0 103.333-3.334zm0 5a1.668 1.668 0 010-3.333 1.667 1.667 0 010 3.333zm0-18.333a3.333 3.333 0 00-3.334 3.333c0 .27.041.529.101.78L8.943 6.551c.329.446.594.94.787 1.47l4.573-2.44a3.312 3.312 0 002.446 1.085 3.333 3.333 0 000-6.667zm0 5a1.668 1.668 0 111.666-1.667c0 .92-.747 1.667-1.666 1.667z"/></g></g><defs><clipPath id="oclip0"><path transform="translate(.086)" d="M0 0h20v20H0z"/></clipPath><clipPath id="oclip1"><path transform="translate(.082)" d="M0 0h20v20H0z"/></clipPath></defs></symbol><symbol viewBox="0 0 24 24" id="sun" xmlns="http://www.w3.org/2000/svg"><path d="M4.069 13H0v-2h4.069A8.047 8.047 0 004 12c0 .339.028.672.069 1zm3.034-7.312L4.222 2.807 2.808 4.221l2.881 2.881a8.019 8.019 0 011.414-1.414zm11.209 1.414l2.881-2.881-1.414-1.414-2.881 2.881a8.121 8.121 0 011.414 1.414zM12 4c.339 0 .672.028 1 .069V0h-2v4.069A8.047 8.047 0 0112 4zm0 16c-.339 0-.672-.028-1-.069V24h2v-4.069A8.047 8.047 0 0112 20zm7.931-9c.041.328.069.661.069 1 0 .339-.028.672-.069 1H24v-2h-4.069zm-3.033 7.312l2.88 2.88 1.415-1.414-2.88-2.88a8.127 8.127 0 01-1.415 1.414zm-11.21-1.415l-2.88 2.88 1.414 1.414 2.88-2.88a8.053 8.053 0 01-1.414-1.414zM8 12c0 2.206 1.794 4 4 4s4-1.794 4-4-1.794-4-4-4-4 1.794-4 4zm10 0a6 6 0 11-12 0 6 6 0 0112 0z"/></symbol><symbol viewBox="0 0 16 61" id="swipeArrow" xmlns="http://www.w3.org/2000/svg"><path d="M7.293 60.707a1 1 0 001.414 0l6.364-6.364a1 1 0 00-1.414-1.414L8 58.586l-5.657-5.657A1 1 0 00.93 54.343l6.364 6.364zM7 0v60h2V0H7z"/></symbol><symbol viewBox="0 0 45 45" id="swipeFinger" xmlns="http://www.w3.org/2000/svg"><g clip-path="url(#rclip0)"><path d="M34.755 14.166c-2.227-.473-8.636-1.695-10.38-2.04V5.54c0-3.054-2.524-5.54-5.625-5.54s-5.625 2.486-5.625 5.54v13.982c-1.039-.63-2.227-1.164-3.446-1.34-3.417-.491-5.929 1.762-5.929 4.684 0 1.509.68 3.024 1.916 4.258 7.448 7.447 10.665 9.61 11.36 17.876h18.599v-3.278c0-9.663 5.625-11.308 5.625-18.804 0-4.59-1.99-7.794-6.495-8.752zm.67 15.04c-1.54 2.782-3.447 6.224-3.546 12.044H20.385c-1.361-7.163-7.144-11.846-12.068-16.78-1.29-1.286-.736-2.568.83-2.574 2.367-.011 5.737 3.533 7.728 6.01V5.54c0-.97.859-1.791 1.875-1.791s1.875.821 1.875 1.79v13.028a1.072 1.072 0 002.141 0V17.49a1.593 1.593 0 013.188 0v2.387a1.071 1.071 0 002.141 0V18.32a1.584 1.584 0 013.169 0v2.874a1.071 1.071 0 002.141 0v-1.71a1.34 1.34 0 011.909-1.211c1.21.572 2.186 1.747 2.186 4.644 0 2.54-.872 4.112-2.076 6.289z"/></g><defs><clipPath id="rclip0"><path d="M0 0h45v45H0z"/></clipPath></defs></symbol><symbol viewBox="0 0 30 30" id="twitter" xmlns="http://www.w3.org/2000/svg"><g clip-path="url(#sclip0)"><path d="M30 5.696c-1.104.49-2.29.82-3.535.97a6.164 6.164 0 002.706-3.406 12.329 12.329 0 01-3.909 1.494A6.145 6.145 0 0020.77 2.81c-3.974 0-6.894 3.708-5.996 7.556a17.473 17.473 0 01-12.685-6.43 6.163 6.163 0 001.904 8.218 6.128 6.128 0 01-2.787-.77c-.067 2.851 1.977 5.519 4.936 6.112a6.17 6.17 0 01-2.78.105 6.16 6.16 0 005.75 4.274A12.376 12.376 0 010 24.425a17.424 17.424 0 009.435 2.765c11.428 0 17.884-9.651 17.494-18.307A12.531 12.531 0 0030 5.696z"/></g><defs><clipPath id="sclip0"><path d="M0 0h30v30H0z"/></clipPath></defs></symbol><symbol viewBox="0 0 16 92" id="up" xmlns="http://www.w3.org/2000/svg"><path d="M8.707.293a1 1 0 00-1.414 0L.929 6.657A1 1 0 002.343 8.07L8 2.414l5.657 5.657a1 1 0 101.414-1.414L8.707.293zM9 92V1H7v91h2z"/></symbol><symbol viewBox="0 0 24 24" id="user" xmlns="http://www.w3.org/2000/svg"><path d="M12 2c3.032 0 5.5 2.467 5.5 5.5 0 1.458-.483 3.196-3.248 5.59 4.111 1.961 6.602 5.253 7.482 8.909H2.248c.955-4.188 4.005-7.399 7.519-8.889C8.166 11.823 6.5 9.787 6.5 7.5 6.5 4.467 8.968 2 12 2zm0-2a7.5 7.5 0 00-7.5 7.5c0 2.012.797 3.834 2.086 5.182C1.556 15.691 0 21.183 0 24h24c0-2.791-1.657-8.28-6.59-11.314A7.47 7.47 0 0019.5 7.5 7.5 7.5 0 0012 0z"/></symbol><symbol viewBox="0 0 30 30" id="youtube" xmlns="http://www.w3.org/2000/svg"><g clip-path="url(#vclip0)"><path d="M24.519 3.98c-4.505-.307-14.539-.306-19.038 0C.61 4.313.036 7.255 0 15c.036 7.731.605 10.686 5.481 11.02 4.5.306 14.533.308 19.038 0C29.39 25.688 29.964 22.745 30 15c-.036-7.731-.605-10.686-5.481-11.02zM11.25 20V10l10 4.991-10 5.01z"/></g><defs><clipPath id="vclip0"><path d="M0 0h30v30H0z"/></clipPath></defs></symbol></svg>